<svg width="512" height="336" viewBox="0 0 512 336" fill="none" xmlns="http://www.w3.org/2000/svg">
<path d="M512 111.816H0V8.828C0 3.953 3.953 0 8.828 0H503.173C508.048 0 512.001 3.953 512.001 8.828L512 111.816Z" fill="#73AF00"/>
<path d="M503.172 335.449H8.828C3.953 335.449 0 331.496 0 326.621V223.633H512V326.621C512 331.496 508.047 335.449 503.172 335.449Z" fill="#FF4B55"/>
<path d="M512 111.812H0V223.622H512V111.812Z" fill="#F5F5F5"/>
<path d="M1.389 105.9H1.466C2.233 105.9 2.855 105.279 2.855 104.511V101.503C2.855 100.736 3.476 100.114 4.244 100.114H10.071C10.838 100.114 11.46 100.735 11.46 101.503V104.511C11.46 105.278 12.081 105.9 12.849 105.9H24.351C25.118 105.9 25.74 105.279 25.74 104.511V98.573C25.74 97.806 25.119 97.184 24.351 97.184H18.561C17.794 97.184 17.172 97.805 17.172 98.573V98.725C17.172 99.492 17.793 100.114 18.561 100.114H21.496C22.263 100.114 22.885 100.735 22.885 101.503V101.654C22.885 102.421 22.264 103.043 21.496 103.043H15.704C14.937 103.043 14.315 102.422 14.315 101.654V98.573C14.315 97.806 13.694 97.184 12.926 97.184H1.389C0.622 97.184 0 97.805 0 98.573V104.511C0 105.277 0.621 105.9 1.389 105.9ZM7.137 105.9H7.216C7.983 105.9 8.605 105.279 8.605 104.511V104.432C8.605 103.665 7.984 103.043 7.216 103.043H7.137C6.37 103.043 5.748 103.664 5.748 104.432V104.511C5.748 105.277 6.37 105.9 7.137 105.9ZM1.389 94.255H35.812C36.579 94.255 37.201 93.634 37.201 92.866V92.714C37.201 91.947 36.58 91.325 35.812 91.325H1.389C0.622 91.325 0 91.946 0 92.714V92.866C0 93.634 0.621 94.255 1.389 94.255ZM35.811 105.9H30.021C29.254 105.9 28.632 105.279 28.632 104.511V98.573C28.632 97.806 29.253 97.184 30.021 97.184H38.669C39.436 97.184 40.058 96.563 40.058 95.795V92.714C40.058 91.947 40.679 91.325 41.447 91.325H41.524C42.291 91.325 42.913 91.946 42.913 92.714V101.654C42.913 102.421 43.534 103.043 44.302 103.043H44.381C45.148 103.043 45.77 102.422 45.77 101.654V92.714C45.77 91.947 46.391 91.325 47.159 91.325H47.236C48.003 91.325 48.625 91.946 48.625 92.714V101.654C48.625 102.421 49.246 103.043 50.014 103.043H50.129C50.896 103.043 51.518 102.422 51.518 101.654V92.714C51.518 91.947 52.139 91.325 52.907 91.325H52.949C53.716 91.325 54.338 91.946 54.338 92.714V104.511C54.338 105.278 53.717 105.9 52.949 105.9H41.447C40.68 105.9 40.058 105.279 40.058 104.511V101.503C40.058 100.736 39.437 100.114 38.669 100.114H32.879C32.112 100.114 31.49 100.735 31.49 101.503V101.654C31.49 102.421 32.111 103.043 32.879 103.043H35.812C36.579 103.043 37.201 103.664 37.201 104.432V104.511C37.201 105.277 36.578 105.9 35.811 105.9Z" fill="#F5F5F5"/>
<path d="M58.6195 105.9H58.7345C59.5015 105.9 60.1235 105.279 60.1235 104.511V101.503C60.1235 100.736 60.7445 100.114 61.5125 100.114H67.2665C68.0335 100.114 68.6555 100.735 68.6555 101.503V104.511C68.6555 105.278 69.2765 105.9 70.0445 105.9H81.5465C82.3135 105.9 82.9355 105.279 82.9355 104.511V98.573C82.9355 97.806 82.3145 97.184 81.5465 97.184H75.7565C74.9895 97.184 74.3675 97.805 74.3675 98.573V98.725C74.3675 99.492 74.9885 100.114 75.7565 100.114H78.6915C79.4585 100.114 80.0805 100.735 80.0805 101.503V101.654C80.0805 102.421 79.4595 103.043 78.6915 103.043H72.9015C72.1345 103.043 71.5125 102.422 71.5125 101.654V98.573C71.5125 97.806 70.8915 97.184 70.1235 97.184H58.6195C57.8525 97.184 57.2305 97.805 57.2305 98.573V104.511C57.2315 105.277 57.8535 105.9 58.6195 105.9ZM64.3325 105.9H64.4095C65.1765 105.9 65.7985 105.279 65.7985 104.511V104.432C65.7985 103.665 65.1775 103.043 64.4095 103.043H64.3325C63.5655 103.043 62.9435 103.664 62.9435 104.432V104.511C62.9445 105.277 63.5655 105.9 64.3325 105.9ZM58.6195 94.255H93.0075C93.7745 94.255 94.3965 93.634 94.3965 92.866V92.714C94.3965 91.947 93.7755 91.325 93.0075 91.325H58.6195C57.8525 91.325 57.2305 91.946 57.2305 92.714V92.866C57.2315 93.634 57.8535 94.255 58.6195 94.255ZM93.0075 105.9H87.1805C86.4135 105.9 85.7915 105.279 85.7915 104.511V98.573C85.7915 97.806 86.4125 97.184 87.1805 97.184H95.8285C96.5955 97.184 97.2175 96.563 97.2175 95.795V92.714C97.2175 91.947 97.8385 91.325 98.6065 91.325H98.7215C99.4885 91.325 100.11 91.946 100.11 92.714V101.654C100.11 102.421 100.731 103.043 101.499 103.043H101.614C102.381 103.043 103.003 102.422 103.003 101.654V92.714C103.003 91.947 103.624 91.325 104.392 91.325H104.434C105.201 91.325 105.823 91.946 105.823 92.714V101.654C105.823 102.421 106.444 103.043 107.212 103.043H107.327C108.094 103.043 108.716 102.422 108.716 101.654V92.714C108.716 91.947 109.337 91.325 110.105 91.325H110.182C110.949 91.325 111.571 91.946 111.571 92.714V104.511C111.571 105.278 110.95 105.9 110.182 105.9H98.6085C97.8415 105.9 97.2195 105.279 97.2195 104.511V101.503C97.2195 100.736 96.5985 100.114 95.8305 100.114H90.0765C89.3095 100.114 88.6875 100.735 88.6875 101.503V101.654C88.6875 102.421 89.3085 103.043 90.0765 103.043H93.0115C93.7785 103.043 94.4005 103.664 94.4005 104.432V104.511C94.3955 105.277 93.7745 105.9 93.0075 105.9Z" fill="#F5F5F5"/>
<path d="M115.815 105.9H115.892C116.659 105.9 117.281 105.279 117.281 104.511V101.503C117.281 100.736 117.902 100.114 118.67 100.114H124.462C125.229 100.114 125.851 100.735 125.851 101.503V104.511C125.851 105.278 126.472 105.9 127.24 105.9H138.778C139.545 105.9 140.167 105.279 140.167 104.511V98.573C140.167 97.806 139.546 97.184 138.778 97.184H132.988C132.221 97.184 131.599 97.805 131.599 98.573V98.725C131.599 99.492 132.22 100.114 132.988 100.114H135.923C136.69 100.114 137.312 100.735 137.312 101.503V101.654C137.312 102.421 136.691 103.043 135.923 103.043H130.096C129.329 103.043 128.707 102.422 128.707 101.654V98.573C128.707 97.806 128.086 97.184 127.318 97.184H115.816C115.049 97.184 114.427 97.805 114.427 98.573V104.511C114.425 105.277 115.048 105.9 115.815 105.9ZM121.527 105.9H121.604C122.371 105.9 122.993 105.279 122.993 104.511V104.432C122.993 103.665 122.372 103.043 121.604 103.043H121.527C120.76 103.043 120.138 103.664 120.138 104.432V104.511C120.138 105.277 120.76 105.9 121.527 105.9ZM115.815 94.255H150.239C151.006 94.255 151.628 93.634 151.628 92.866V92.714C151.628 91.947 151.007 91.325 150.239 91.325H115.815C115.048 91.325 114.426 91.946 114.426 92.714V92.866C114.425 93.634 115.048 94.255 115.815 94.255ZM150.239 105.9H144.412C143.645 105.9 143.023 105.279 143.023 104.511V98.573C143.023 97.806 143.644 97.184 144.412 97.184H153.058C153.825 97.184 154.447 96.563 154.447 95.795V92.714C154.447 91.947 155.068 91.325 155.836 91.325H155.915C156.682 91.325 157.304 91.946 157.304 92.714V101.654C157.304 102.421 157.925 103.043 158.693 103.043H158.808C159.575 103.043 160.197 102.422 160.197 101.654V92.714C160.197 91.947 160.818 91.325 161.586 91.325H161.701C162.468 91.325 163.09 91.946 163.09 92.714V101.654C163.09 102.421 163.711 103.043 164.479 103.043H164.521C165.288 103.043 165.91 102.422 165.91 101.654V92.714C165.91 91.947 166.531 91.325 167.299 91.325H167.376C168.143 91.325 168.765 91.946 168.765 92.714V104.511C168.765 105.278 168.144 105.9 167.376 105.9H155.836C155.069 105.9 154.447 105.279 154.447 104.511V101.503C154.447 100.736 153.826 100.114 153.058 100.114H147.268C146.501 100.114 145.879 100.735 145.879 101.503V101.654C145.879 102.421 146.5 103.043 147.268 103.043H150.241C151.008 103.043 151.63 103.664 151.63 104.432V104.511C151.628 105.277 151.006 105.9 150.239 105.9Z" fill="#F5F5F5"/>
<path d="M173.006 105.9H173.083C173.85 105.9 174.472 105.279 174.472 104.511V101.503C174.472 100.736 175.093 100.114 175.861 100.114H181.651C182.418 100.114 183.04 100.735 183.04 101.503V104.511C183.04 105.278 183.661 105.9 184.429 105.9H195.969C196.736 105.9 197.358 105.279 197.358 104.511V98.573C197.358 97.806 196.737 97.184 195.969 97.184H190.142C189.375 97.184 188.753 97.805 188.753 98.573V98.725C188.753 99.492 189.374 100.114 190.142 100.114H193.077C193.844 100.114 194.466 100.735 194.466 101.503V101.654C194.466 102.421 193.845 103.043 193.077 103.043H187.287C186.52 103.043 185.898 102.422 185.898 101.654V98.573C185.898 97.806 185.277 97.184 184.509 97.184H173.007C172.24 97.184 171.618 97.805 171.618 98.573V104.511C171.618 105.277 172.24 105.9 173.006 105.9ZM178.719 105.9H178.796C179.563 105.9 180.185 105.279 180.185 104.511V104.432C180.185 103.665 179.564 103.043 178.796 103.043H178.719C177.952 103.043 177.33 103.664 177.33 104.432V104.511C177.331 105.277 177.952 105.9 178.719 105.9ZM173.006 94.255H207.394C208.161 94.255 208.783 93.634 208.783 92.866V92.714C208.783 91.947 208.162 91.325 207.394 91.325H173.006C172.239 91.325 171.617 91.946 171.617 92.714V92.866C171.618 93.634 172.24 94.255 173.006 94.255ZM207.394 105.9H201.567C200.8 105.9 200.178 105.279 200.178 104.511V98.573C200.178 97.806 200.799 97.184 201.567 97.184H210.288C211.055 97.184 211.677 96.563 211.677 95.795V92.714C211.677 91.947 212.298 91.325 213.066 91.325H213.143C213.91 91.325 214.532 91.946 214.532 92.714V101.654C214.532 102.421 215.153 103.043 215.921 103.043H215.963C216.73 103.043 217.352 102.422 217.352 101.654V92.714C217.352 91.947 217.973 91.325 218.741 91.325H218.856C219.623 91.325 220.245 91.946 220.245 92.714V101.654C220.245 102.421 220.866 103.043 221.634 103.043H221.713C222.48 103.043 223.102 102.422 223.102 101.654V92.714C223.102 91.947 223.723 91.325 224.491 91.325H224.568C225.335 91.325 225.957 91.946 225.957 92.714V104.511C225.957 105.278 225.336 105.9 224.568 105.9H213.061C212.294 105.9 211.672 105.279 211.672 104.511V101.503C211.672 100.736 211.051 100.114 210.283 100.114H204.456C203.689 100.114 203.067 100.735 203.067 101.503V101.654C203.067 102.421 203.688 103.043 204.456 103.043H207.391C208.158 103.043 208.78 103.664 208.78 104.432V104.511C208.782 105.277 208.161 105.9 207.394 105.9Z" fill="#F5F5F5"/>
<path d="M230.201 105.9H230.281C231.048 105.9 231.669 105.279 231.669 104.511V101.503C231.669 100.736 232.291 100.114 233.059 100.114H238.848C239.615 100.114 240.237 100.735 240.237 101.503V104.511C240.237 105.278 240.858 105.9 241.626 105.9H253.166C253.933 105.9 254.555 105.279 254.555 104.511V98.573C254.555 97.806 253.934 97.184 253.166 97.184H247.339C246.572 97.184 245.951 97.805 245.951 98.573V98.725C245.951 99.492 246.571 100.114 247.339 100.114H250.309C251.076 100.114 251.699 100.735 251.699 101.503V101.654C251.699 102.421 251.077 103.043 250.309 103.043H244.52C243.753 103.043 243.13 102.422 243.13 101.654V98.573C243.13 97.806 242.51 97.184 241.742 97.184H230.201C229.434 97.184 228.812 97.805 228.812 98.573V104.511C228.814 105.277 229.434 105.9 230.201 105.9ZM235.951 105.9H235.993C236.76 105.9 237.382 105.279 237.382 104.511V104.432C237.382 103.665 236.761 103.043 235.993 103.043H235.951C235.184 103.043 234.562 103.664 234.562 104.432V104.511C234.563 105.277 235.184 105.9 235.951 105.9ZM230.201 94.255H264.626C265.393 94.255 266.016 93.634 266.016 92.866V92.714C266.016 91.947 265.394 91.325 264.626 91.325H230.201C229.434 91.325 228.812 91.946 228.812 92.714V92.866C228.814 93.634 229.434 94.255 230.201 94.255ZM264.628 105.9H258.801C258.034 105.9 257.411 105.279 257.411 104.511V98.573C257.411 97.806 258.033 97.184 258.801 97.184H267.484C268.251 97.184 268.874 96.563 268.874 95.795V92.714C268.874 91.947 269.494 91.325 270.262 91.325H270.34C271.107 91.325 271.728 91.946 271.728 92.714V101.654C271.728 102.421 272.349 103.043 273.117 103.043H273.197C273.964 103.043 274.586 102.422 274.586 101.654V92.714C274.586 91.947 275.206 91.325 275.974 91.325H276.051C276.818 91.325 277.44 91.946 277.44 92.714V101.654C277.44 102.421 278.061 103.043 278.829 103.043H278.906C279.673 103.043 280.296 102.422 280.296 101.654V92.714C280.296 91.947 280.917 91.325 281.685 91.325H281.763C282.53 91.325 283.152 91.946 283.152 92.714V104.511C283.152 105.278 282.531 105.9 281.763 105.9H270.262C269.495 105.9 268.872 105.279 268.872 104.511V101.503C268.872 100.736 268.251 100.114 267.483 100.114H261.656C260.889 100.114 260.267 100.735 260.267 101.503V101.654C260.267 102.421 260.888 103.043 261.656 103.043H264.626C265.393 103.043 266.016 103.664 266.016 104.432V104.511C266.016 105.277 265.395 105.9 264.628 105.9Z" fill="#F5F5F5"/>
<path d="M287.397 105.9H287.476C288.243 105.9 288.865 105.279 288.865 104.511V101.503C288.865 100.736 289.486 100.114 290.254 100.114H296.044C296.811 100.114 297.433 100.735 297.433 101.503V104.511C297.433 105.278 298.054 105.9 298.822 105.9H310.362C311.129 105.9 311.751 105.279 311.751 104.511V98.573C311.751 97.806 311.13 97.184 310.362 97.184H304.57C303.803 97.184 303.181 97.805 303.181 98.573V98.725C303.181 99.492 303.802 100.114 304.57 100.114H307.469C308.236 100.114 308.858 100.735 308.858 101.503V101.654C308.858 102.421 308.237 103.043 307.469 103.043H301.715C300.948 103.043 300.326 102.422 300.326 101.654V98.573C300.326 97.806 299.705 97.184 298.937 97.184H287.397C286.63 97.184 286.008 97.805 286.008 98.573V104.511C286.008 105.277 286.63 105.9 287.397 105.9ZM293.146 105.9H293.188C293.955 105.9 294.577 105.279 294.577 104.511V104.432C294.577 103.665 293.956 103.043 293.188 103.043H293.146C292.379 103.043 291.757 103.664 291.757 104.432V104.511C291.758 105.277 292.379 105.9 293.146 105.9ZM287.397 94.255H321.821C322.588 94.255 323.21 93.634 323.21 92.866V92.714C323.21 91.947 322.589 91.325 321.821 91.325H287.397C286.63 91.325 286.008 91.946 286.008 92.714V92.866C286.008 93.634 286.63 94.255 287.397 94.255ZM321.822 105.9H316.032C315.265 105.9 314.643 105.279 314.643 104.511V98.573C314.643 97.806 315.264 97.184 316.032 97.184H324.678C325.445 97.184 326.067 96.563 326.067 95.795V92.714C326.067 91.947 326.688 91.325 327.456 91.325H327.535C328.302 91.325 328.924 91.946 328.924 92.714V101.654C328.924 102.421 329.545 103.043 330.313 103.043H330.39C331.157 103.043 331.779 102.422 331.779 101.654V92.714C331.779 91.947 332.4 91.325 333.168 91.325H333.247C334.014 91.325 334.636 91.946 334.636 92.714V101.654C334.636 102.421 335.257 103.043 336.025 103.043H336.102C336.869 103.043 337.491 102.422 337.491 101.654V92.714C337.491 91.947 338.112 91.325 338.88 91.325H338.959C339.726 91.325 340.348 91.946 340.348 92.714V104.511C340.348 105.278 339.727 105.9 338.959 105.9H327.454C326.687 105.9 326.065 105.279 326.065 104.511V101.503C326.065 100.736 325.444 100.114 324.676 100.114H318.85C318.083 100.114 317.461 100.735 317.461 101.503V101.654C317.461 102.421 318.082 103.043 318.85 103.043H321.82C322.587 103.043 323.209 103.664 323.209 104.432V104.511C323.211 105.277 322.588 105.9 321.822 105.9Z" fill="#F5F5F5"/>
<path d="M344.588 105.9H344.667C345.434 105.9 346.056 105.279 346.056 104.511V101.503C346.056 100.736 346.677 100.114 347.445 100.114H353.271C354.038 100.114 354.66 100.735 354.66 101.503V104.511C354.66 105.278 355.281 105.9 356.049 105.9H367.554C368.321 105.9 368.943 105.279 368.943 104.511V98.573C368.943 97.806 368.322 97.184 367.554 97.184H361.762C360.995 97.184 360.373 97.805 360.373 98.573V98.725C360.373 99.492 360.994 100.114 361.762 100.114H364.735C365.502 100.114 366.124 100.735 366.124 101.503V101.654C366.124 102.421 365.503 103.043 364.735 103.043H358.87C358.103 103.043 357.481 102.422 357.481 101.654V98.573C357.481 97.806 356.86 97.184 356.092 97.184H344.59C343.823 97.184 343.201 97.805 343.201 98.573V104.511C343.2 105.277 343.821 105.9 344.588 105.9ZM350.301 105.9H350.416C351.183 105.9 351.805 105.279 351.805 104.511V104.432C351.805 103.665 351.184 103.043 350.416 103.043H350.301C349.534 103.043 348.912 103.664 348.912 104.432V104.511C348.912 105.277 349.534 105.9 350.301 105.9ZM344.588 94.255H379.012C379.779 94.255 380.401 93.634 380.401 92.866V92.714C380.401 91.947 379.78 91.325 379.012 91.325H344.588C343.821 91.325 343.199 91.946 343.199 92.714V92.866C343.2 93.634 343.821 94.255 344.588 94.255ZM379.014 105.9H373.224C372.457 105.9 371.835 105.279 371.835 104.511V98.573C371.835 97.806 372.456 97.184 373.224 97.184H381.87C382.637 97.184 383.259 96.563 383.259 95.795V92.714C383.259 91.947 383.88 91.325 384.648 91.325H384.727C385.494 91.325 386.116 91.946 386.116 92.714V101.654C386.116 102.421 386.737 103.043 387.505 103.043H387.582C388.349 103.043 388.971 102.422 388.971 101.654V92.714C388.971 91.947 389.592 91.325 390.36 91.325H390.439C391.206 91.325 391.828 91.946 391.828 92.714V101.654C391.828 102.421 392.449 103.043 393.217 103.043H393.332C394.099 103.043 394.721 102.422 394.721 101.654V92.714C394.721 91.947 395.342 91.325 396.11 91.325H396.15C396.917 91.325 397.539 91.946 397.539 92.714V104.511C397.539 105.278 396.918 105.9 396.15 105.9H384.648C383.881 105.9 383.259 105.279 383.259 104.511V101.503C383.259 100.736 382.638 100.114 381.87 100.114H376.116C375.349 100.114 374.727 100.735 374.727 101.503V101.654C374.727 102.421 375.348 103.043 376.116 103.043H379.015C379.782 103.043 380.404 103.664 380.404 104.432V104.511C380.402 105.277 379.781 105.9 379.014 105.9Z" fill="#F5F5F5"/>
<path d="M401.819 105.9H401.861C402.628 105.9 403.25 105.279 403.25 104.511V101.503C403.25 100.736 403.871 100.114 404.639 100.114H410.431C411.198 100.114 411.82 100.735 411.82 101.503V104.511C411.82 105.278 412.441 105.9 413.209 105.9H424.747C425.514 105.9 426.136 105.279 426.136 104.511V98.573C426.136 97.806 425.515 97.184 424.747 97.184H418.995C418.228 97.184 417.606 97.805 417.606 98.573V98.725C417.606 99.492 418.227 100.114 418.995 100.114H421.928C422.695 100.114 423.317 100.735 423.317 101.503V101.654C423.317 102.421 422.696 103.043 421.928 103.043H416.102C415.335 103.043 414.713 102.422 414.713 101.654V98.573C414.713 97.806 414.092 97.184 413.324 97.184H401.819C401.052 97.184 400.43 97.805 400.43 98.573V104.511C400.429 105.277 401.052 105.9 401.819 105.9ZM407.531 105.9H407.61C408.377 105.9 408.999 105.279 408.999 104.511V104.432C408.999 103.665 408.378 103.043 407.61 103.043H407.531C406.764 103.043 406.142 103.664 406.142 104.432V104.511C406.142 105.277 406.764 105.9 407.531 105.9ZM401.819 94.255H436.281C437.048 94.255 437.67 93.634 437.67 92.866V92.714C437.67 91.947 437.049 91.325 436.281 91.325H401.819C401.052 91.325 400.43 91.946 400.43 92.714V92.866C400.429 93.634 401.052 94.255 401.819 94.255ZM436.28 105.9H430.415C429.648 105.9 429.026 105.279 429.026 104.511V98.573C429.026 97.806 429.647 97.184 430.415 97.184H439.063C439.83 97.184 440.452 96.563 440.452 95.795V92.714C440.452 91.947 441.073 91.325 441.841 91.325H441.956C442.723 91.325 443.345 91.946 443.345 92.714V101.654C443.345 102.421 443.966 103.043 444.734 103.043H444.811C445.578 103.043 446.2 102.422 446.2 101.654V92.714C446.2 91.947 446.821 91.325 447.589 91.325H447.631C448.398 91.325 449.02 91.946 449.02 92.714V101.654C449.02 102.421 449.641 103.043 450.409 103.043H450.524C451.291 103.043 451.913 102.422 451.913 101.654V92.714C451.913 91.947 452.534 91.325 453.302 91.325H453.381C454.148 91.325 454.77 91.946 454.77 92.714V104.511C454.77 105.278 454.149 105.9 453.381 105.9H441.841C441.074 105.9 440.452 105.279 440.452 104.511V101.503C440.452 100.736 439.831 100.114 439.063 100.114H433.273C432.506 100.114 431.884 100.735 431.884 101.503V101.654C431.884 102.421 432.505 103.043 433.273 103.043H436.281C437.048 103.043 437.67 103.664 437.67 104.432V104.511C437.67 105.277 437.047 105.9 436.28 105.9Z" fill="#F5F5F5"/>
<path d="M459.014 105.9H459.093C459.86 105.9 460.482 105.279 460.482 104.511V101.503C460.482 100.736 461.103 100.114 461.871 100.114H467.661C468.428 100.114 469.05 100.735 469.05 101.503V104.511C469.05 105.278 469.671 105.9 470.439 105.9H481.979C482.746 105.9 483.368 105.279 483.368 104.511V98.573C483.368 97.806 482.747 97.184 481.979 97.184H476.225C475.458 97.184 474.836 97.805 474.836 98.573V98.725C474.836 99.492 475.457 100.114 476.225 100.114H479.16C479.927 100.114 480.549 100.735 480.549 101.503V101.654C480.549 102.421 479.928 103.043 479.16 103.043H473.295C472.528 103.043 471.906 102.422 471.906 101.654V98.573C471.906 97.806 471.285 97.184 470.517 97.184H459.015C458.248 97.184 457.626 97.805 457.626 98.573V104.511C457.626 105.277 458.248 105.9 459.014 105.9ZM464.727 105.9H464.806C465.573 105.9 466.195 105.279 466.195 104.511V104.432C466.195 103.665 465.574 103.043 464.806 103.043H464.727C463.96 103.043 463.338 103.664 463.338 104.432V104.511C463.339 105.277 463.96 105.9 464.727 105.9ZM459.014 94.255H493.402C494.169 94.255 494.791 93.634 494.791 92.866V92.714C494.791 91.947 494.17 91.325 493.402 91.325H459.014C458.247 91.325 457.625 91.946 457.625 92.714V92.866C457.626 93.634 458.248 94.255 459.014 94.255ZM493.402 105.9H487.612C486.845 105.9 486.223 105.279 486.223 104.511V98.573C486.223 97.806 486.844 97.184 487.612 97.184H496.333C497.1 97.184 497.722 96.563 497.722 95.795V92.714C497.722 91.947 498.343 91.325 499.111 91.325H499.115C499.882 91.325 500.504 91.946 500.504 92.714V101.654C500.504 102.421 501.125 103.043 501.893 103.043H502.045C502.812 103.043 503.434 102.422 503.434 101.654V92.714C503.434 91.947 504.055 91.325 504.823 91.325H504.827C505.594 91.325 506.216 91.946 506.216 92.714V101.654C506.216 102.421 506.837 103.043 507.605 103.043H507.684C508.451 103.043 509.073 102.422 509.073 101.654V92.714C509.073 91.947 509.694 91.325 510.462 91.325H510.613C511.38 91.325 512.002 91.946 512.002 92.714V104.511C512.002 105.278 511.381 105.9 510.613 105.9H499.111C498.344 105.9 497.722 105.279 497.722 104.511V101.503C497.722 100.736 497.101 100.114 496.333 100.114H490.469C489.702 100.114 489.08 100.735 489.08 101.503V101.654C489.08 102.421 489.701 103.043 490.469 103.043H493.402C494.169 103.043 494.791 103.664 494.791 104.432V104.511C494.791 105.277 494.169 105.9 493.402 105.9Z" fill="#F5F5F5"/>
<path d="M1.389 114.759H24.352C25.119 114.759 25.741 114.138 25.741 113.37V110.289C25.741 109.522 25.12 108.9 24.352 108.9H1.389C0.622 108.9 0 109.521 0 110.289V113.37C0 114.138 0.621 114.759 1.389 114.759ZM30.022 114.759H52.949C53.716 114.759 54.338 114.138 54.338 113.37V110.289C54.338 109.522 53.717 108.9 52.949 108.9H30.022C29.255 108.9 28.633 109.521 28.633 110.289V113.37C28.633 114.138 29.255 114.759 30.022 114.759Z" fill="#F5F5F5"/>
<path d="M58.6195 114.759H81.5465C82.3135 114.759 82.9355 114.138 82.9355 113.37V110.289C82.9355 109.522 82.3145 108.9 81.5465 108.9H58.6195C57.8525 108.9 57.2305 109.521 57.2305 110.289V113.37C57.2315 114.138 57.8535 114.759 58.6195 114.759ZM87.1805 114.759H110.18C110.947 114.759 111.569 114.138 111.569 113.37V110.289C111.569 109.522 110.948 108.9 110.18 108.9H87.1805C86.4135 108.9 85.7915 109.521 85.7915 110.289V113.37C85.7915 114.138 86.4135 114.759 87.1805 114.759Z" fill="#F5F5F5"/>
<path d="M115.815 114.759H138.778C139.545 114.759 140.167 114.138 140.167 113.37V110.289C140.167 109.522 139.546 108.9 138.778 108.9H115.815C115.048 108.9 114.426 109.521 114.426 110.289V113.37C114.425 114.138 115.048 114.759 115.815 114.759ZM144.411 114.759H167.374C168.141 114.759 168.763 114.138 168.763 113.37V110.289C168.763 109.522 168.142 108.9 167.374 108.9H144.411C143.644 108.9 143.022 109.521 143.022 110.289V113.37C143.023 114.138 143.645 114.759 144.411 114.759Z" fill="#F5F5F5"/>
<path d="M173.006 114.759H195.969C196.736 114.759 197.358 114.138 197.358 113.37V110.289C197.358 109.522 196.737 108.9 195.969 108.9H173.006C172.239 108.9 171.617 109.521 171.617 110.289V113.37C171.618 114.138 172.24 114.759 173.006 114.759ZM201.567 114.759H224.567C225.334 114.759 225.956 114.138 225.956 113.37V110.289C225.956 109.522 225.335 108.9 224.567 108.9H201.567C200.8 108.9 200.178 109.521 200.178 110.289V113.37C200.178 114.138 200.799 114.759 201.567 114.759Z" fill="#F5F5F5"/>
<path d="M230.201 114.759H253.166C253.933 114.759 254.555 114.138 254.555 113.37V110.289C254.555 109.522 253.934 108.9 253.166 108.9H230.201C229.434 108.9 228.812 109.521 228.812 110.289V113.37C228.814 114.138 229.434 114.759 230.201 114.759ZM258.798 114.759H281.763C282.53 114.759 283.152 114.138 283.152 113.37V110.289C283.152 109.522 282.531 108.9 281.763 108.9H258.798C258.031 108.9 257.409 109.521 257.409 110.289V113.37C257.41 114.138 258.031 114.759 258.798 114.759Z" fill="#F5F5F5"/>
<path d="M287.397 114.759H310.362C311.129 114.759 311.751 114.138 311.751 113.37V110.289C311.751 109.522 311.13 108.9 310.362 108.9H287.397C286.63 108.9 286.008 109.521 286.008 110.289V113.37C286.008 114.138 286.63 114.759 287.397 114.759ZM316.032 114.759H338.959C339.726 114.759 340.348 114.138 340.348 113.37V110.289C340.348 109.522 339.727 108.9 338.959 108.9H316.032C315.265 108.9 314.643 109.521 314.643 110.289V113.37C314.643 114.138 315.265 114.759 316.032 114.759Z" fill="#F5F5F5"/>
<path d="M344.588 114.759H367.553C368.32 114.759 368.942 114.138 368.942 113.37V110.289C368.942 109.522 368.321 108.9 367.553 108.9H344.588C343.821 108.9 343.199 109.521 343.199 110.289V113.37C343.2 114.138 343.821 114.759 344.588 114.759ZM373.223 114.759H396.148C396.915 114.759 397.537 114.138 397.537 113.37V110.289C397.537 109.522 396.916 108.9 396.148 108.9H373.223C372.456 108.9 371.834 109.521 371.834 110.289V113.37C371.835 114.138 372.456 114.759 373.223 114.759Z" fill="#F5F5F5"/>
<path d="M401.819 114.759H424.746C425.513 114.759 426.135 114.138 426.135 113.37V110.289C426.135 109.522 425.514 108.9 424.746 108.9H401.819C401.052 108.9 400.43 109.521 400.43 110.289V113.37C400.429 114.138 401.052 114.759 401.819 114.759ZM430.416 114.759H453.381C454.148 114.759 454.77 114.138 454.77 113.37V110.289C454.77 109.522 454.149 108.9 453.381 108.9H430.416C429.649 108.9 429.027 109.521 429.027 110.289V113.37C429.027 114.138 429.649 114.759 430.416 114.759Z" fill="#F5F5F5"/>
<path d="M459.014 114.759H481.979C482.746 114.759 483.368 114.138 483.368 113.37V110.289C483.368 109.522 482.747 108.9 481.979 108.9H459.014C458.247 108.9 457.625 109.521 457.625 110.289V113.37C457.626 114.138 458.248 114.759 459.014 114.759ZM487.613 114.759H510.613C511.38 114.759 512.002 114.138 512.002 113.37V110.289C512.002 109.522 511.381 108.9 510.613 108.9H487.613C486.846 108.9 486.224 109.521 486.224 110.289V113.37C486.223 114.138 486.845 114.759 487.613 114.759Z" fill="#F5F5F5"/>
<path d="M510.609 229.55H510.532C509.765 229.55 509.143 230.171 509.143 230.939V233.947C509.143 234.714 508.522 235.336 507.754 235.336H501.927C501.16 235.336 500.538 234.715 500.538 233.947V230.939C500.538 230.172 499.917 229.55 499.149 229.55H487.647C486.88 229.55 486.258 230.171 486.258 230.939V236.878C486.258 237.645 486.879 238.267 487.647 238.267H493.437C494.204 238.267 494.826 237.646 494.826 236.878V236.726C494.826 235.959 494.205 235.337 493.437 235.337H490.502C489.735 235.337 489.113 234.716 489.113 233.948V233.797C489.113 233.03 489.734 232.408 490.502 232.408H496.294C497.061 232.408 497.683 233.029 497.683 233.797V236.878C497.683 237.645 498.304 238.267 499.072 238.267H510.61C511.377 238.267 511.999 237.646 511.999 236.878V230.939C511.998 230.172 511.377 229.55 510.609 229.55ZM504.861 229.55H504.782C504.015 229.55 503.393 230.171 503.393 230.939V231.018C503.393 231.785 504.014 232.407 504.782 232.407H504.861C505.628 232.407 506.25 231.786 506.25 231.018V230.939C506.25 230.172 505.628 229.55 504.861 229.55ZM510.609 241.195H476.186C475.419 241.195 474.797 241.816 474.797 242.584V242.736C474.797 243.503 475.418 244.125 476.186 244.125H510.609C511.376 244.125 511.998 243.504 511.998 242.736V242.584C511.998 241.816 511.377 241.195 510.609 241.195ZM476.187 229.55H481.977C482.744 229.55 483.366 230.171 483.366 230.939V236.878C483.366 237.645 482.745 238.267 481.977 238.267H473.329C472.562 238.267 471.94 238.888 471.94 239.656V242.737C471.94 243.504 471.319 244.126 470.551 244.126H470.474C469.707 244.126 469.085 243.505 469.085 242.737V233.797C469.085 233.03 468.464 232.408 467.696 232.408H467.617C466.85 232.408 466.228 233.029 466.228 233.797V242.737C466.228 243.504 465.607 244.126 464.839 244.126H464.762C463.995 244.126 463.373 243.505 463.373 242.737V233.797C463.373 233.03 462.752 232.408 461.984 232.408H461.869C461.102 232.408 460.48 233.029 460.48 233.797V242.737C460.48 243.504 459.859 244.126 459.091 244.126H459.049C458.282 244.126 457.66 243.505 457.66 242.737V230.94C457.66 230.173 458.281 229.551 459.049 229.551H470.551C471.318 229.551 471.94 230.172 471.94 230.94V233.948C471.94 234.715 472.561 235.337 473.329 235.337H479.119C479.886 235.337 480.508 234.716 480.508 233.948V233.797C480.508 233.03 479.887 232.408 479.119 232.408H476.186C475.419 232.408 474.797 231.787 474.797 231.019V230.94C474.797 230.172 475.42 229.55 476.187 229.55Z" fill="#F5F5F5"/>
<path d="M453.382 229.55H453.267C452.5 229.55 451.878 230.171 451.878 230.939V233.947C451.878 234.714 451.257 235.336 450.489 235.336H444.735C443.968 235.336 443.346 234.715 443.346 233.947V230.939C443.346 230.172 442.725 229.55 441.957 229.55H430.455C429.688 229.55 429.066 230.171 429.066 230.939V236.878C429.066 237.645 429.687 238.267 430.455 238.267H436.245C437.012 238.267 437.634 237.646 437.634 236.878V236.726C437.634 235.959 437.013 235.337 436.245 235.337H433.31C432.543 235.337 431.921 234.716 431.921 233.948V233.797C431.921 233.03 432.542 232.408 433.31 232.408H439.102C439.869 232.408 440.491 233.029 440.491 233.797V236.878C440.491 237.645 441.112 238.267 441.88 238.267H453.382C454.149 238.267 454.771 237.646 454.771 236.878V230.939C454.77 230.172 454.148 229.55 453.382 229.55ZM447.669 229.55H447.592C446.825 229.55 446.203 230.171 446.203 230.939V231.018C446.203 231.785 446.824 232.407 447.592 232.407H447.669C448.436 232.407 449.058 231.786 449.058 231.018V230.939C449.057 230.172 448.436 229.55 447.669 229.55ZM453.382 241.195H418.994C418.227 241.195 417.605 241.816 417.605 242.584V242.736C417.605 243.503 418.226 244.125 418.994 244.125H453.382C454.149 244.125 454.771 243.504 454.771 242.736V242.584C454.77 241.816 454.148 241.195 453.382 241.195ZM418.994 229.55H424.821C425.588 229.55 426.21 230.171 426.21 230.939V236.878C426.21 237.645 425.589 238.267 424.821 238.267H416.173C415.406 238.267 414.784 238.888 414.784 239.656V242.737C414.784 243.504 414.163 244.126 413.395 244.126H413.28C412.513 244.126 411.891 243.505 411.891 242.737V233.797C411.891 233.03 411.27 232.408 410.502 232.408H410.387C409.62 232.408 408.998 233.029 408.998 233.797V242.737C408.998 243.504 408.377 244.126 407.609 244.126H407.567C406.8 244.126 406.178 243.505 406.178 242.737V233.797C406.178 233.03 405.557 232.408 404.789 232.408H404.674C403.907 232.408 403.285 233.029 403.285 233.797V242.737C403.285 243.504 402.664 244.126 401.896 244.126H401.819C401.052 244.126 400.43 243.505 400.43 242.737V230.94C400.43 230.173 401.051 229.551 401.819 229.551H413.394C414.161 229.551 414.783 230.172 414.783 230.94V233.948C414.783 234.715 415.404 235.337 416.172 235.337H421.926C422.693 235.337 423.315 234.716 423.315 233.948V233.797C423.315 233.03 422.694 232.408 421.926 232.408H418.991C418.224 232.408 417.602 231.787 417.602 231.019V230.94C417.605 230.172 418.227 229.55 418.994 229.55Z" fill="#F5F5F5"/>
<path d="M396.184 229.55H396.107C395.34 229.55 394.718 230.171 394.718 230.939V233.947C394.718 234.714 394.097 235.336 393.329 235.336H387.537C386.77 235.336 386.148 234.715 386.148 233.947V230.939C386.148 230.172 385.527 229.55 384.759 229.55H373.221C372.454 229.55 371.832 230.171 371.832 230.939V236.878C371.832 237.645 372.453 238.267 373.221 238.267H379.011C379.778 238.267 380.4 237.646 380.4 236.878V236.726C380.4 235.959 379.779 235.337 379.011 235.337H376.076C375.309 235.337 374.687 234.716 374.687 233.948V233.797C374.687 233.03 375.308 232.408 376.076 232.408H381.903C382.67 232.408 383.292 233.029 383.292 233.797V236.878C383.292 237.645 383.913 238.267 384.681 238.267H396.183C396.95 238.267 397.572 237.646 397.572 236.878V230.939C397.574 230.172 396.951 229.55 396.184 229.55ZM390.472 229.55H390.395C389.628 229.55 389.006 230.171 389.006 230.939V231.018C389.006 231.785 389.627 232.407 390.395 232.407H390.472C391.239 232.407 391.861 231.786 391.861 231.018V230.939C391.861 230.172 391.239 229.55 390.472 229.55ZM396.184 241.195H361.759C360.992 241.195 360.37 241.816 360.37 242.584V242.736C360.37 243.503 360.991 244.125 361.759 244.125H396.184C396.951 244.125 397.573 243.504 397.573 242.736V242.584C397.574 241.816 396.951 241.195 396.184 241.195ZM361.76 229.55H367.587C368.354 229.55 368.976 230.171 368.976 230.939V236.878C368.976 237.645 368.355 238.267 367.587 238.267H358.941C358.174 238.267 357.552 238.888 357.552 239.656V242.737C357.552 243.504 356.931 244.126 356.163 244.126H356.084C355.317 244.126 354.695 243.505 354.695 242.737V233.797C354.695 233.03 354.074 232.408 353.306 232.408H353.191C352.424 232.408 351.802 233.029 351.802 233.797V242.737C351.802 243.504 351.181 244.126 350.413 244.126H350.298C349.531 244.126 348.909 243.505 348.909 242.737V233.797C348.909 233.03 348.288 232.408 347.52 232.408H347.478C346.711 232.408 346.089 233.029 346.089 233.797V242.737C346.089 243.504 345.468 244.126 344.7 244.126H344.623C343.856 244.126 343.234 243.505 343.234 242.737V230.94C343.234 230.173 343.855 229.551 344.623 229.551H356.163C356.93 229.551 357.552 230.172 357.552 230.94V233.948C357.552 234.715 358.173 235.337 358.941 235.337H364.731C365.498 235.337 366.12 234.716 366.12 233.948V233.797C366.12 233.03 365.499 232.408 364.731 232.408H361.758C360.991 232.408 360.369 231.787 360.369 231.019V230.94C360.371 230.172 360.993 229.55 361.76 229.55Z" fill="#F5F5F5"/>
<path d="M338.994 229.55H338.917C338.15 229.55 337.528 230.171 337.528 230.939V233.947C337.528 234.714 336.907 235.336 336.139 235.336H330.349C329.582 235.336 328.96 234.715 328.96 233.947V230.939C328.96 230.172 328.339 229.55 327.571 229.55H316.031C315.264 229.55 314.642 230.171 314.642 230.939V236.878C314.642 237.645 315.263 238.267 316.031 238.267H321.858C322.625 238.267 323.247 237.646 323.247 236.878V236.726C323.247 235.959 322.626 235.337 321.858 235.337H318.923C318.156 235.337 317.534 234.716 317.534 233.948V233.797C317.534 233.03 318.155 232.408 318.923 232.408H324.713C325.48 232.408 326.102 233.029 326.102 233.797V236.878C326.102 237.645 326.723 238.267 327.491 238.267H338.993C339.76 238.267 340.382 237.646 340.382 236.878V230.939C340.382 230.172 339.76 229.55 338.994 229.55ZM333.281 229.55H333.204C332.437 229.55 331.815 230.171 331.815 230.939V231.018C331.815 231.785 332.436 232.407 333.204 232.407H333.281C334.048 232.407 334.67 231.786 334.67 231.018V230.939C334.669 230.172 334.048 229.55 333.281 229.55ZM338.994 241.195H304.606C303.839 241.195 303.217 241.816 303.217 242.584V242.736C303.217 243.503 303.838 244.125 304.606 244.125H338.994C339.761 244.125 340.383 243.504 340.383 242.736V242.584C340.382 241.816 339.76 241.195 338.994 241.195ZM304.606 229.55H310.433C311.2 229.55 311.822 230.171 311.822 230.939V236.878C311.822 237.645 311.201 238.267 310.433 238.267H301.712C300.945 238.267 300.323 238.888 300.323 239.656V242.737C300.323 243.504 299.702 244.126 298.934 244.126H298.857C298.09 244.126 297.468 243.505 297.468 242.737V233.797C297.468 233.03 296.847 232.408 296.079 232.408H296.037C295.27 232.408 294.648 233.029 294.648 233.797V242.737C294.648 243.504 294.027 244.126 293.259 244.126H293.144C292.377 244.126 291.755 243.505 291.755 242.737V233.797C291.755 233.03 291.134 232.408 290.366 232.408H290.287C289.52 232.408 288.898 233.029 288.898 233.797V242.737C288.898 243.504 288.277 244.126 287.509 244.126H287.432C286.665 244.126 286.043 243.505 286.043 242.737V230.94C286.043 230.173 286.664 229.551 287.432 229.551H298.934C299.701 229.551 300.323 230.172 300.323 230.94V233.948C300.323 234.715 300.944 235.337 301.712 235.337H307.539C308.306 235.337 308.928 234.716 308.928 233.948V233.797C308.928 233.03 308.307 232.408 307.539 232.408H304.604C303.837 232.408 303.215 231.787 303.215 231.019V230.94C303.218 230.172 303.839 229.55 304.606 229.55Z" fill="#F5F5F5"/>
<path d="M281.799 229.55H281.72C280.953 229.55 280.331 230.171 280.331 230.939V233.947C280.331 234.714 279.71 235.336 278.942 235.336H273.152C272.385 235.336 271.763 234.715 271.763 233.947V230.939C271.763 230.172 271.142 229.55 270.374 229.55H258.834C258.067 229.55 257.445 230.171 257.445 230.939V236.878C257.445 237.645 258.066 238.267 258.834 238.267H264.661C265.428 238.267 266.05 237.646 266.05 236.878V236.726C266.05 235.959 265.429 235.337 264.661 235.337H261.691C260.924 235.337 260.302 234.716 260.302 233.948V233.797C260.302 233.03 260.923 232.408 261.691 232.408H267.481C268.248 232.408 268.87 233.029 268.87 233.797V236.878C268.87 237.645 269.491 238.267 270.259 238.267H281.799C282.566 238.267 283.188 237.646 283.188 236.878V230.939C283.187 230.172 282.566 229.55 281.799 229.55ZM276.049 229.55H276.007C275.24 229.55 274.618 230.171 274.618 230.939V231.018C274.618 231.785 275.239 232.407 276.007 232.407H276.049C276.816 232.407 277.438 231.786 277.438 231.018V230.939C277.438 230.172 276.816 229.55 276.049 229.55ZM281.799 241.195H247.374C246.607 241.195 245.985 241.816 245.985 242.584V242.736C245.985 243.503 246.606 244.125 247.374 244.125H281.799C282.566 244.125 283.188 243.504 283.188 242.736V242.584C283.187 241.816 282.566 241.195 281.799 241.195ZM247.373 229.55H253.2C253.967 229.55 254.589 230.171 254.589 230.939V236.878C254.589 237.645 253.968 238.267 253.2 238.267H244.516C243.749 238.267 243.127 238.888 243.127 239.656V242.737C243.127 243.504 242.506 244.126 241.738 244.126H241.661C240.894 244.126 240.272 243.505 240.272 242.737V233.797C240.272 233.03 239.651 232.408 238.883 232.408H238.804C238.037 232.408 237.415 233.029 237.415 233.797V242.737C237.415 243.504 236.794 244.126 236.026 244.126H235.949C235.182 244.126 234.56 243.505 234.56 242.737V233.797C234.56 233.03 233.939 232.408 233.171 232.408H233.094C232.327 232.408 231.705 233.029 231.705 233.797V242.737C231.705 243.504 231.084 244.126 230.316 244.126H230.237C229.47 244.126 228.848 243.505 228.848 242.737V230.94C228.848 230.173 229.469 229.551 230.237 229.551H241.739C242.506 229.551 243.128 230.172 243.128 230.94V233.948C243.128 234.715 243.749 235.337 244.517 235.337H250.344C251.111 235.337 251.733 234.716 251.733 233.948V233.797C251.733 233.03 251.112 232.408 250.344 232.408H247.374C246.607 232.408 245.985 231.787 245.985 231.019V230.94C245.985 230.172 246.606 229.55 247.373 229.55Z" fill="#F5F5F5"/>
<path d="M224.603 229.55H224.524C223.757 229.55 223.135 230.171 223.135 230.939V233.947C223.135 234.714 222.514 235.336 221.746 235.336H215.956C215.189 235.336 214.567 234.715 214.567 233.947V230.939C214.567 230.172 213.946 229.55 213.178 229.55H201.638C200.871 229.55 200.249 230.171 200.249 230.939V236.878C200.249 237.645 200.87 238.267 201.638 238.267H207.43C208.197 238.267 208.819 237.646 208.819 236.878V236.726C208.819 235.959 208.198 235.337 207.43 235.337H204.531C203.764 235.337 203.142 234.716 203.142 233.948V233.797C203.142 233.03 203.763 232.408 204.531 232.408H210.285C211.052 232.408 211.674 233.029 211.674 233.797V236.878C211.674 237.645 212.295 238.267 213.063 238.267H224.603C225.37 238.267 225.992 237.646 225.992 236.878V230.939C225.992 230.172 225.37 229.55 224.603 229.55ZM218.854 229.55H218.812C218.045 229.55 217.423 230.171 217.423 230.939V231.018C217.423 231.785 218.044 232.407 218.812 232.407H218.854C219.621 232.407 220.243 231.786 220.243 231.018V230.939C220.242 230.172 219.621 229.55 218.854 229.55ZM224.603 241.195H190.178C189.411 241.195 188.789 241.816 188.789 242.584V242.736C188.789 243.503 189.41 244.125 190.178 244.125H224.602C225.369 244.125 225.991 243.504 225.991 242.736V242.584C225.992 241.816 225.37 241.195 224.603 241.195ZM190.178 229.55H195.968C196.735 229.55 197.357 230.171 197.357 230.939V236.878C197.357 237.645 196.736 238.267 195.968 238.267H187.322C186.555 238.267 185.933 238.888 185.933 239.656V242.737C185.933 243.504 185.312 244.126 184.544 244.126H184.465C183.698 244.126 183.076 243.505 183.076 242.737V233.797C183.076 233.03 182.455 232.408 181.687 232.408H181.61C180.843 232.408 180.221 233.029 180.221 233.797V242.737C180.221 243.504 179.6 244.126 178.832 244.126H178.753C177.986 244.126 177.364 243.505 177.364 242.737V233.797C177.364 233.03 176.743 232.408 175.975 232.408H175.898C175.131 232.408 174.509 233.029 174.509 233.797V242.737C174.509 243.504 173.888 244.126 173.12 244.126H173.041C172.274 244.126 171.652 243.505 171.652 242.737V230.94C171.652 230.173 172.273 229.551 173.041 229.551H184.546C185.313 229.551 185.935 230.172 185.935 230.94V233.948C185.935 234.715 186.556 235.337 187.324 235.337H193.15C193.917 235.337 194.539 234.716 194.539 233.948V233.797C194.539 233.03 193.918 232.408 193.15 232.408H190.18C189.413 232.408 188.791 231.787 188.791 231.019V230.94C188.789 230.172 189.412 229.55 190.178 229.55Z" fill="#F5F5F5"/>
<path d="M167.413 229.55H167.334C166.567 229.55 165.945 230.171 165.945 230.939V233.947C165.945 234.714 165.324 235.336 164.556 235.336H158.73C157.963 235.336 157.341 234.715 157.341 233.947V230.939C157.341 230.172 156.72 229.55 155.952 229.55H144.447C143.68 229.55 143.058 230.171 143.058 230.939V236.878C143.058 237.645 143.679 238.267 144.447 238.267H150.239C151.006 238.267 151.628 237.646 151.628 236.878V236.726C151.628 235.959 151.007 235.337 150.239 235.337H147.266C146.499 235.337 145.877 234.716 145.877 233.948V233.797C145.877 233.03 146.498 232.408 147.266 232.408H153.131C153.898 232.408 154.52 233.029 154.52 233.797V236.878C154.52 237.645 155.141 238.267 155.909 238.267H167.411C168.178 238.267 168.8 237.646 168.8 236.878V230.939C168.801 230.172 168.18 229.55 167.413 229.55ZM161.7 229.55H161.585C160.818 229.55 160.196 230.171 160.196 230.939V231.018C160.196 231.785 160.817 232.407 161.585 232.407H161.7C162.467 232.407 163.089 231.786 163.089 231.018V230.939C163.089 230.172 162.467 229.55 161.7 229.55ZM167.413 241.195H132.989C132.222 241.195 131.6 241.816 131.6 242.584V242.736C131.6 243.503 132.221 244.125 132.989 244.125H167.413C168.18 244.125 168.802 243.504 168.802 242.736V242.584C168.801 241.816 168.18 241.195 167.413 241.195ZM132.987 229.55H138.777C139.544 229.55 140.166 230.171 140.166 230.939V236.878C140.166 237.645 139.545 238.267 138.777 238.267H130.131C129.364 238.267 128.742 238.888 128.742 239.656V242.737C128.742 243.504 128.121 244.126 127.353 244.126H127.274C126.507 244.126 125.885 243.505 125.885 242.737V233.797C125.885 233.03 125.264 232.408 124.496 232.408H124.419C123.652 232.408 123.03 233.029 123.03 233.797V242.737C123.03 243.504 122.409 244.126 121.641 244.126H121.562C120.795 244.126 120.173 243.505 120.173 242.737V233.797C120.173 233.03 119.552 232.408 118.784 232.408H118.669C117.902 232.408 117.28 233.029 117.28 233.797V242.737C117.28 243.504 116.659 244.126 115.891 244.126H115.85C115.083 244.126 114.461 243.505 114.461 242.737V230.94C114.461 230.173 115.082 229.551 115.85 229.551H127.352C128.119 229.551 128.741 230.172 128.741 230.94V233.948C128.741 234.715 129.362 235.337 130.13 235.337H135.884C136.651 235.337 137.273 234.716 137.273 233.948V233.797C137.273 233.03 136.652 232.408 135.884 232.408H132.985C132.218 232.408 131.596 231.787 131.596 231.019V230.94C131.599 230.172 132.22 229.55 132.987 229.55Z" fill="#F5F5F5"/>
<path d="M110.181 229.55H110.139C109.372 229.55 108.75 230.171 108.75 230.939V233.947C108.75 234.714 108.129 235.336 107.361 235.336H101.569C100.802 235.336 100.18 234.715 100.18 233.947V230.939C100.18 230.172 99.5595 229.55 98.7915 229.55H87.2555C86.4885 229.55 85.8665 230.171 85.8665 230.939V236.878C85.8665 237.645 86.4875 238.267 87.2555 238.267H93.0075C93.7745 238.267 94.3965 237.646 94.3965 236.878V236.726C94.3965 235.959 93.7755 235.337 93.0075 235.337H90.0745C89.3075 235.337 88.6855 234.716 88.6855 233.948V233.797C88.6855 233.03 89.3065 232.408 90.0745 232.408H95.9015C96.6685 232.408 97.2905 233.029 97.2905 233.797V236.878C97.2905 237.645 97.9115 238.267 98.6795 238.267H110.184C110.951 238.267 111.573 237.646 111.573 236.878V230.939C111.571 230.172 110.948 229.55 110.181 229.55ZM104.469 229.55H104.39C103.623 229.55 103.001 230.171 103.001 230.939V231.018C103.001 231.785 103.622 232.407 104.39 232.407H104.469C105.236 232.407 105.858 231.786 105.858 231.018V230.939C105.858 230.172 105.236 229.55 104.469 229.55ZM110.181 241.195H75.7205C74.9535 241.195 74.3315 241.816 74.3315 242.584V242.736C74.3315 243.503 74.9525 244.125 75.7205 244.125H110.182C110.949 244.125 111.571 243.504 111.571 242.736V242.584C111.571 241.816 110.948 241.195 110.181 241.195ZM75.7205 229.55H81.5855C82.3525 229.55 82.9745 230.171 82.9745 230.939V236.878C82.9745 237.645 82.3535 238.267 81.5855 238.267H72.9375C72.1705 238.267 71.5485 238.888 71.5485 239.656V242.737C71.5485 243.504 70.9275 244.126 70.1595 244.126H70.0445C69.2775 244.126 68.6555 243.505 68.6555 242.737V233.797C68.6555 233.03 68.0345 232.408 67.2665 232.408H67.1895C66.4225 232.408 65.8005 233.029 65.8005 233.797V242.737C65.8005 243.504 65.1795 244.126 64.4115 244.126H64.3695C63.6025 244.126 62.9805 243.505 62.9805 242.737V233.797C62.9805 233.03 62.3595 232.408 61.5915 232.408H61.4765C60.7095 232.408 60.0875 233.029 60.0875 233.797V242.737C60.0875 243.504 59.4665 244.126 58.6985 244.126H58.6195C57.8525 244.126 57.2305 243.505 57.2305 242.737V230.94C57.2305 230.173 57.8515 229.551 58.6195 229.551H70.1595C70.9265 229.551 71.5485 230.172 71.5485 230.94V233.948C71.5485 234.715 72.1695 235.337 72.9375 235.337H78.7275C79.4945 235.337 80.1165 234.716 80.1165 233.948V233.797C80.1165 233.03 79.4955 232.408 78.7275 232.408H75.7225C74.9555 232.408 74.3335 231.787 74.3335 231.019V230.94C74.3305 230.172 74.9535 229.55 75.7205 229.55Z" fill="#F5F5F5"/>
<path d="M52.986 229.55H52.907C52.14 229.55 51.518 230.171 51.518 230.939V233.947C51.518 234.714 50.897 235.336 50.129 235.336H44.339C43.572 235.336 42.95 234.715 42.95 233.947V230.939C42.95 230.172 42.329 229.55 41.561 229.55H30.022C29.255 229.55 28.633 230.171 28.633 230.939V236.878C28.633 237.645 29.254 238.267 30.022 238.267H35.776C36.543 238.267 37.165 237.646 37.165 236.878V236.726C37.165 235.959 36.544 235.337 35.776 235.337H32.841C32.074 235.337 31.452 234.716 31.452 233.948V233.797C31.452 233.03 32.073 232.408 32.841 232.408H38.706C39.473 232.408 40.095 233.029 40.095 233.797V236.878C40.095 237.645 40.716 238.267 41.484 238.267H52.986C53.753 238.267 54.375 237.646 54.375 236.878V230.939C54.375 230.172 53.753 229.55 52.986 229.55ZM47.274 229.55H47.195C46.428 229.55 45.806 230.171 45.806 230.939V231.018C45.806 231.785 46.427 232.407 47.195 232.407H47.274C48.041 232.407 48.663 231.786 48.663 231.018V230.939C48.662 230.172 48.041 229.55 47.274 229.55ZM52.986 241.195H18.599C17.832 241.195 17.21 241.816 17.21 242.584V242.736C17.21 243.503 17.831 244.125 18.599 244.125H52.987C53.754 244.125 54.376 243.504 54.376 242.736V242.584C54.375 241.816 53.753 241.195 52.986 241.195ZM18.599 229.55H24.389C25.156 229.55 25.778 230.171 25.778 230.939V236.878C25.778 237.645 25.157 238.267 24.389 238.267H15.67C14.903 238.267 14.281 238.888 14.281 239.656V242.737C14.281 243.504 13.66 244.126 12.892 244.126H12.888C12.121 244.126 11.499 243.505 11.499 242.737V233.797C11.499 233.03 10.878 232.408 10.11 232.408H9.956C9.189 232.408 8.567 233.029 8.567 233.797V242.737C8.567 243.504 7.946 244.126 7.178 244.126H7.175C6.408 244.126 5.786 243.505 5.786 242.737V233.797C5.786 233.03 5.165 232.408 4.397 232.408H4.317C3.55 232.408 2.928 233.029 2.928 233.797V242.737C2.928 243.504 2.307 244.126 1.539 244.126H1.389C0.622 244.126 0 243.505 0 242.737V230.94C0 230.173 0.621 229.551 1.389 229.551H12.891C13.658 229.551 14.28 230.172 14.28 230.94V233.948C14.28 234.715 14.901 235.337 15.669 235.337H21.533C22.3 235.337 22.922 234.716 22.922 233.948V233.797C22.922 233.03 22.301 232.408 21.533 232.408H18.6C17.833 232.408 17.211 231.787 17.211 231.019V230.94C17.21 230.172 17.832 229.55 18.599 229.55Z" fill="#F5F5F5"/>
<path d="M510.609 220.69H487.646C486.879 220.69 486.257 221.311 486.257 222.079V225.16C486.257 225.927 486.878 226.549 487.646 226.549H510.609C511.376 226.549 511.998 225.928 511.998 225.16V222.079C511.998 221.311 511.377 220.69 510.609 220.69ZM481.976 220.69H459.049C458.282 220.69 457.66 221.311 457.66 222.079V225.16C457.66 225.927 458.281 226.549 459.049 226.549H481.976C482.743 226.549 483.365 225.928 483.365 225.16V222.079C483.365 221.311 482.743 220.69 481.976 220.69Z" fill="#F5F5F5"/>
<path d="M453.384 220.69H430.457C429.69 220.69 429.068 221.311 429.068 222.079V225.16C429.068 225.927 429.689 226.549 430.457 226.549H453.384C454.151 226.549 454.773 225.928 454.773 225.16V222.079C454.772 221.311 454.15 220.69 453.384 220.69ZM424.823 220.69H401.823C401.056 220.69 400.434 221.311 400.434 222.079V225.16C400.434 225.927 401.055 226.549 401.823 226.549H424.823C425.59 226.549 426.212 225.928 426.212 225.16V222.079C426.212 221.311 425.591 220.69 424.823 220.69Z" fill="#F5F5F5"/>
<path d="M396.186 220.69H373.223C372.456 220.69 371.834 221.311 371.834 222.079V225.16C371.834 225.927 372.455 226.549 373.223 226.549H396.186C396.953 226.549 397.575 225.928 397.575 225.16V222.079C397.576 221.311 396.953 220.69 396.186 220.69ZM367.59 220.69H344.627C343.86 220.69 343.238 221.311 343.238 222.079V225.16C343.238 225.927 343.859 226.549 344.627 226.549H367.59C368.357 226.549 368.979 225.928 368.979 225.16V222.079C368.979 221.311 368.356 220.69 367.59 220.69Z" fill="#F5F5F5"/>
<path d="M338.993 220.69H316.03C315.263 220.69 314.641 221.311 314.641 222.079V225.16C314.641 225.927 315.262 226.549 316.03 226.549H338.993C339.76 226.549 340.382 225.928 340.382 225.16V222.079C340.381 221.311 339.759 220.69 338.993 220.69ZM310.432 220.69H287.432C286.665 220.69 286.043 221.311 286.043 222.079V225.16C286.043 225.927 286.664 226.549 287.432 226.549H310.432C311.199 226.549 311.821 225.928 311.821 225.16V222.079C311.821 221.311 311.2 220.69 310.432 220.69Z" fill="#F5F5F5"/>
<path d="M281.799 220.69H258.834C258.067 220.69 257.445 221.311 257.445 222.079V225.16C257.445 225.927 258.066 226.549 258.834 226.549H281.799C282.566 226.549 283.188 225.928 283.188 225.16V222.079C283.187 221.311 282.566 220.69 281.799 220.69ZM253.202 220.69H230.237C229.47 220.69 228.848 221.311 228.848 222.079V225.16C228.848 225.927 229.469 226.549 230.237 226.549H253.202C253.969 226.549 254.591 225.928 254.591 225.16V222.079C254.59 221.311 253.969 220.69 253.202 220.69Z" fill="#F5F5F5"/>
<path d="M224.603 220.69H201.638C200.871 220.69 200.249 221.311 200.249 222.079V225.16C200.249 225.927 200.87 226.549 201.638 226.549H224.603C225.37 226.549 225.992 225.928 225.992 225.16V222.079C225.992 221.311 225.37 220.69 224.603 220.69ZM195.968 220.69H173.041C172.274 220.69 171.652 221.311 171.652 222.079V225.16C171.652 225.927 172.273 226.549 173.041 226.549H195.968C196.735 226.549 197.357 225.928 197.357 225.16V222.079C197.357 221.311 196.735 220.69 195.968 220.69Z" fill="#F5F5F5"/>
<path d="M167.41 220.69H144.445C143.678 220.69 143.056 221.311 143.056 222.079V225.16C143.056 225.927 143.677 226.549 144.445 226.549H167.41C168.177 226.549 168.799 225.928 168.799 225.16V222.079C168.798 221.311 168.177 220.69 167.41 220.69ZM138.775 220.69H115.85C115.083 220.69 114.461 221.311 114.461 222.079V225.16C114.461 225.927 115.082 226.549 115.85 226.549H138.775C139.542 226.549 140.164 225.928 140.164 225.16V222.079C140.163 221.311 139.542 220.69 138.775 220.69Z" fill="#F5F5F5"/>
<path d="M110.181 220.69H87.2555C86.4885 220.69 85.8665 221.311 85.8665 222.079V225.16C85.8665 225.927 86.4875 226.549 87.2555 226.549H110.182C110.949 226.549 111.571 225.928 111.571 225.16V222.079C111.571 221.311 110.948 220.69 110.181 220.69ZM81.5845 220.69H58.6195C57.8525 220.69 57.2305 221.311 57.2305 222.079V225.16C57.2305 225.927 57.8515 226.549 58.6195 226.549H81.5845C82.3515 226.549 82.9735 225.928 82.9735 225.16V222.079C82.9735 221.311 82.3515 220.69 81.5845 220.69Z" fill="#F5F5F5"/>
<path d="M52.986 220.69H30.022C29.255 220.69 28.633 221.311 28.633 222.079V225.16C28.633 225.927 29.254 226.549 30.022 226.549H52.987C53.754 226.549 54.376 225.928 54.376 225.16V222.079C54.375 221.311 53.753 220.69 52.986 220.69ZM24.388 220.69H1.389C0.621 220.69 0 221.311 0 222.079V225.16C0 225.927 0.621 226.549 1.389 226.549H24.389C25.156 226.549 25.778 225.928 25.778 225.16V222.079C25.778 221.311 25.156 220.69 24.388 220.69Z" fill="#F5F5F5"/>
<path d="M248.696 125.998C251.314 126.696 254.11 125.927 256.03 123.972C258.928 126.906 263.677 126.976 266.681 124.113C268.637 122.227 269.44 119.363 268.741 116.779C266.193 120.9 260.816 122.227 256.695 119.642C256.485 119.501 256.206 119.362 256.032 119.222C252.157 122.085 246.675 121.317 243.741 117.477C243.635 117.266 243.427 116.987 243.286 116.779C242.237 120.832 244.681 125.02 248.696 125.998Z" fill="#FF4B55"/>
<path d="M264.965 207.579C274.351 202.426 282.184 194.307 286.479 183.613C293.793 165.283 289.187 144.593 275.196 131.173C274.715 130.712 273.984 131.329 274.333 131.897C288.132 154.4 282.696 183.971 261.343 200.175L262.364 134.808C262.378 133.921 261.982 133.076 261.293 132.517L257.82 129.71C256.756 128.85 255.236 128.855 254.178 129.72L250.756 132.517C250.073 133.075 249.683 133.915 249.697 134.797L250.689 200.21C229.333 184.014 223.885 154.416 237.663 131.898C238.011 131.33 237.28 130.713 236.8 131.175C222.836 144.595 218.201 165.284 225.514 183.613C229.809 194.305 237.641 202.425 247.03 207.578C241.055 209.626 234.775 210.712 228.425 210.53C227.754 210.511 227.619 211.455 228.262 211.649C236.33 214.098 244.628 214.266 252.43 212.517L255.493 218.46C255.705 218.87 256.292 218.872 256.505 218.461L259.589 212.52C267.391 214.266 275.692 214.095 283.766 211.646C284.408 211.452 284.274 210.508 283.603 210.527C277.245 210.712 270.95 209.626 264.965 207.579Z" fill="#FF4B55"/>
<path d="M303.168 146.81C298.364 137.835 290.386 131.032 280.889 127.699C280.294 127.49 279.83 128.276 280.316 128.677C301.282 145.948 305.485 176.709 289.272 198.979C288.433 200.097 287.525 201.284 286.652 202.26C306.557 191.575 313.924 166.714 303.168 146.81Z" fill="#FF4B55"/>
<path d="M222.754 198.979C206.54 176.709 210.71 145.949 231.672 128.678C232.159 128.276 231.694 127.492 231.099 127.7C221.614 131.034 213.691 137.835 208.856 146.81C198.032 166.714 205.47 191.575 225.408 202.259C224.466 201.283 223.558 200.097 222.754 198.979Z" fill="#FF4B55"/>
</svg>
